<svg width="12" height="12" viewBox="0 0 12 12" fill="none" xmlns="http://www.w3.org/2000/svg">
<path d="M10.7139 8.63209V3.36791C11.0064 3.29297 11.2738 3.14199 11.489 2.93028C11.7042 2.71858 11.8595 2.4537 11.9393 2.16253C12.019 1.87137 12.0202 1.56429 11.9429 1.27248C11.8656 0.980673 11.7124 0.714524 11.4989 0.501061C11.2855 0.287597 11.0193 0.134422 10.7275 0.0570865C10.4357 -0.0202484 10.1286 -0.0189883 9.83747 0.060739C9.5463 0.140466 9.28142 0.295821 9.06972 0.511029C8.85801 0.726238 8.70703 0.993634 8.63209 1.28607H3.36791C3.29297 0.993634 3.14199 0.726238 2.93028 0.511029C2.71858 0.295821 2.4537 0.140466 2.16253 0.060739C1.87137 -0.0189883 1.56429 -0.0202484 1.27248 0.0570865C0.980673 0.134422 0.714524 0.287597 0.501061 0.501061C0.287597 0.714524 0.134422 0.980673 0.0570865 1.27248C-0.0202484 1.56429 -0.0189883 1.87137 0.060739 2.16253C0.140466 2.4537 0.295821 2.71858 0.511029 2.93028C0.726238 3.14199 0.993634 3.29297 1.28607 3.36791V8.63209C0.993634 8.70703 0.726238 8.85801 0.511029 9.06972C0.295821 9.28142 0.140466 9.5463 0.060739 9.83747C-0.0189883 10.1286 -0.0202484 10.4357 0.0570865 10.7275C0.134422 11.0193 0.287597 11.2855 0.501061 11.4989C0.714524 11.7124 0.980673 11.8656 1.27248 11.9429C1.56429 12.0202 1.87137 12.019 2.16253 11.9393C2.4537 11.8595 2.71858 11.7042 2.93028 11.489C3.14199 11.2738 3.29297 11.0064 3.36791 10.7139H8.63209C8.70703 11.0064 8.85801 11.2738 9.06972 11.489C9.28142 11.7042 9.5463 11.8595 9.83747 11.9393C10.1286 12.019 10.4357 12.0202 10.7275 11.9429C11.0193 11.8656 11.2855 11.7124 11.4989 11.4989C11.7124 11.2855 11.8656 11.0193 11.9429 10.7275C12.0202 10.4357 12.019 10.1286 11.9393 9.83747C11.8595 9.5463 11.7042 9.28142 11.489 9.06972C11.2738 8.85801 11.0064 8.70703 10.7139 8.63209ZM10.2854 0.857529C10.4549 0.857529 10.6206 0.907796 10.7616 1.00197C10.9025 1.09615 11.0124 1.23001 11.0772 1.38662C11.1421 1.54323 11.1591 1.71556 11.126 1.88182C11.0929 2.04807 11.0113 2.20079 10.8914 2.32065C10.7716 2.44052 10.6189 2.52215 10.4526 2.55522C10.2863 2.58829 10.114 2.57132 9.9574 2.50644C9.80079 2.44157 9.66693 2.33172 9.57276 2.19077C9.47858 2.04983 9.42831 1.88412 9.42831 1.71461C9.42854 1.48737 9.51891 1.2695 9.6796 1.10881C9.84028 0.948128 10.0582 0.857756 10.2854 0.857529ZM0.857529 1.71461C0.857529 1.54509 0.907796 1.37939 1.00197 1.23844C1.09615 1.09749 1.23001 0.98764 1.38662 0.92277C1.54323 0.8579 1.71556 0.840927 1.88182 0.873997C2.04807 0.907068 2.20079 0.988697 2.32065 1.10856C2.44052 1.22843 2.52215 1.38114 2.55522 1.5474C2.58829 1.71366 2.57132 1.88599 2.50644 2.0426C2.44157 2.19921 2.33172 2.33307 2.19077 2.42724C2.04983 2.52142 1.88412 2.57169 1.71461 2.57169C1.48737 2.57146 1.2695 2.48109 1.10881 2.3204C0.948128 2.15972 0.857756 1.94185 0.857529 1.71461ZM1.71461 11.1425C1.54509 11.1425 1.37939 11.0922 1.23844 10.998C1.09749 10.9038 0.98764 10.77 0.92277 10.6134C0.8579 10.4568 0.840927 10.2844 0.873997 10.1182C0.907068 9.95193 0.988697 9.79921 1.10856 9.67935C1.22843 9.55948 1.38114 9.47785 1.5474 9.44478C1.71366 9.41171 1.88599 9.42868 2.0426 9.49356C2.19921 9.55842 2.33307 9.66828 2.42724 9.80923C2.52142 9.95017 2.57169 10.1159 2.57169 10.2854C2.57146 10.5126 2.48109 10.7305 2.3204 10.8912C2.15972 11.0519 1.94185 11.1422 1.71461 11.1425ZM8.63209 9.85685H3.36791C3.29115 9.56222 3.13718 9.2934 2.92189 9.07811C2.7066 8.86282 2.43778 8.70885 2.14315 8.63209V3.36791C2.43776 3.29111 2.70656 3.13713 2.92184 2.92184C3.13713 2.70656 3.29111 2.43776 3.36791 2.14315H8.63209C8.70885 2.43778 8.86282 2.7066 9.07811 2.92189C9.2934 3.13718 9.56222 3.29115 9.85685 3.36791V8.63209C9.5622 8.70881 9.29336 8.86276 9.07806 9.07806C8.86276 9.29336 8.70881 9.5622 8.63209 9.85685ZM10.2854 11.1425C10.1159 11.1425 9.95017 11.0922 9.80923 10.998C9.66828 10.9038 9.55842 10.77 9.49356 10.6134C9.42868 10.4568 9.41171 10.2844 9.44478 10.1182C9.47785 9.95193 9.55948 9.79921 9.67935 9.67935C9.79921 9.55948 9.95193 9.47785 10.1182 9.44478C10.2844 9.41171 10.4568 9.42868 10.6134 9.49356C10.77 9.55842 10.9038 9.66828 10.998 9.80923C11.0922 9.95017 11.1425 10.1159 11.1425 10.2854C11.1421 10.5126 11.0517 10.7304 10.8911 10.8911C10.7304 11.0517 10.5126 11.1421 10.2854 11.1425Z" fill="white"/>
</svg>
