<svg width="34" height="34" viewBox="0 0 34 34" fill="none" xmlns="http://www.w3.org/2000/svg">
<rect x="0.5" y="0.5" width="32.3167" height="32.3167" rx="9.5" stroke="white"/>
<path d="M12.814 16.6547C12.814 16.7801 12.8366 16.8959 12.8819 17.002C12.9323 17.1081 13.0078 17.2094 13.1085 17.3059L18.9919 22.8194C19.1631 22.9834 19.3695 23.0654 19.6112 23.0654C19.7774 23.0654 19.9259 23.0268 20.0568 22.9496C20.1928 22.8773 20.301 22.776 20.3816 22.6457C20.4621 22.5203 20.5024 22.3804 20.5024 22.2261C20.5024 21.9945 20.4093 21.7895 20.223 21.611L14.9211 16.6547L20.223 11.6984C20.4093 11.5199 20.5024 11.3173 20.5024 11.0906C20.5024 10.9314 20.4621 10.7891 20.3816 10.6637C20.301 10.5383 20.1928 10.4394 20.0568 10.3671C19.9259 10.2899 19.7774 10.2513 19.6112 10.2513C19.3695 10.2513 19.1631 10.3309 18.9919 10.4901L13.1085 16.0035C13.0078 16.1 12.9323 16.2013 12.8819 16.3074C12.8366 16.4135 12.814 16.5293 12.814 16.6547Z" fill="white"/>
</svg>
