<svg width="42" height="42" viewBox="0 0 42 42" fill="none" xmlns="http://www.w3.org/2000/svg">
<rect x="0.5" y="0.576172" width="40.5736" height="40.5736" rx="9.5" stroke="#D8DADC"/>
<path d="M15.9902 20.8585C15.9902 21.0149 16.0185 21.1594 16.0751 21.2918C16.1379 21.4243 16.2321 21.5507 16.3578 21.671L23.6993 28.5509C23.9129 28.7556 24.1705 28.8579 24.4721 28.8579C24.6794 28.8579 24.8648 28.8097 25.0281 28.7134C25.1977 28.6231 25.3328 28.4967 25.4334 28.3342C25.5339 28.1777 25.5841 28.0032 25.5841 27.8106C25.5841 27.5216 25.4679 27.2658 25.2354 27.0431L18.6196 20.8585L25.2354 14.6738C25.4679 14.4511 25.5841 14.1983 25.5841 13.9154C25.5841 13.7167 25.5339 13.5392 25.4334 13.3827C25.3328 13.2262 25.1977 13.1028 25.0281 13.0125C24.8648 12.9162 24.6794 12.868 24.4721 12.868C24.1705 12.868 23.9129 12.9674 23.6993 13.166L16.3578 20.0459C16.2321 20.1663 16.1379 20.2927 16.0751 20.4251C16.0185 20.5575 15.9902 20.702 15.9902 20.8585Z" fill="white"/>
</svg>
