<svg width="11" height="11" viewBox="0 0 11 11" fill="none" xmlns="http://www.w3.org/2000/svg">
<path d="M9.94564 9.64187C10.1004 9.64204 10.2492 9.70104 10.3617 9.80681C10.4742 9.91259 10.542 10.0572 10.551 10.211C10.5601 10.3648 10.5098 10.5162 10.4105 10.6344C10.3112 10.7526 10.1703 10.8285 10.0167 10.8467L9.94564 10.8509H5.69595C5.54122 10.8508 5.39239 10.7918 5.27987 10.686C5.16735 10.5802 5.09964 10.4356 5.09057 10.2818C5.08151 10.128 5.13176 9.97655 5.23108 9.85839C5.33039 9.74023 5.47127 9.6643 5.62492 9.6461L5.69595 9.64187H9.94564ZM8.18263 0.796374C8.46066 0.519681 8.83566 0.361193 9.22867 0.354271C9.62169 0.347349 10.0021 0.492533 10.2898 0.759262C10.5775 1.02599 10.75 1.39346 10.7711 1.78431C10.7922 2.17517 10.6601 2.55893 10.4028 2.8548L10.3287 2.93339L3.71378 9.52096C3.65597 9.5786 3.59063 9.62821 3.51951 9.66847L3.44666 9.70474L1.13726 10.7506C0.646722 10.9724 0.142831 10.4985 0.308568 10.01L0.332852 9.94957L1.38313 7.64933C1.4168 7.57536 1.46029 7.50623 1.51244 7.44379L1.56708 7.38334L8.18263 0.796374Z" fill="#E84312"/>
</svg>
