<svg width="35" height="35" viewBox="0 0 35 35" fill="none" xmlns="http://www.w3.org/2000/svg">
<circle opacity="0.25" cx="17.5" cy="17.5" r="17.5" fill="white"/>
<path d="M25.2233 17C25.2233 16.77 25.2133 16.55 25.1933 16.32L27.0533 14.91C27.4533 14.61 27.5633 14.05 27.3133 13.61L25.4433 10.38C25.3234 10.1682 25.1295 10.0081 24.8987 9.93062C24.668 9.8531 24.4168 9.86356 24.1933 9.96L22.0433 10.87C21.6733 10.61 21.2833 10.38 20.8733 10.19L20.5833 7.88C20.5233 7.38 20.0933 7 19.5933 7H15.8633C15.3533 7 14.9233 7.38 14.8633 7.88L14.5733 10.19C14.1633 10.38 13.7733 10.61 13.4033 10.87L11.2533 9.96C10.7933 9.76 10.2533 9.94 10.0033 10.38L8.1333 13.62C7.8833 14.06 7.9933 14.61 8.3933 14.92L10.2533 16.33C10.2118 16.779 10.2118 17.231 10.2533 17.68L8.3933 19.09C7.9933 19.39 7.8833 19.95 8.1333 20.39L10.0033 23.62C10.2533 24.06 10.7933 24.24 11.2533 24.04L13.4033 23.13C13.7733 23.39 14.1633 23.62 14.5733 23.81L14.8633 26.12C14.9233 26.62 15.3533 27 15.8533 27H19.5833C20.0833 27 20.5133 26.62 20.5733 26.12L20.8633 23.81C21.2733 23.62 21.6633 23.39 22.0333 23.13L24.1833 24.04C24.6433 24.24 25.1833 24.06 25.4333 23.62L27.3033 20.39C27.5533 19.95 27.4433 19.4 27.0433 19.09L25.1833 17.68C25.2133 17.45 25.2233 17.23 25.2233 17ZM17.7633 20.5C15.8333 20.5 14.2633 18.93 14.2633 17C14.2633 15.07 15.8333 13.5 17.7633 13.5C19.6933 13.5 21.2633 15.07 21.2633 17C21.2633 18.93 19.6933 20.5 17.7633 20.5Z" fill="white"/>
</svg>
