<svg width="49" height="47" viewBox="0 0 49 47" fill="none" xmlns="http://www.w3.org/2000/svg">
<path d="M24.5 0L25.6169 4.58213C26.8996 9.84472 27.5409 12.476 28.911 14.5998C30.1225 16.4778 31.7384 18.0614 33.6405 19.2347C35.7915 20.5616 38.4352 21.1498 43.7226 22.326L49 23.5L43.7226 24.674C38.4352 25.8502 35.7915 26.4384 33.6405 27.7653C31.7384 28.9386 30.1225 30.5222 28.911 32.4002C27.5409 34.524 26.8996 37.1553 25.6169 42.4179L24.5 47L23.3831 42.4179C22.1004 37.1553 21.4591 34.524 20.089 32.4002C18.8775 30.5222 17.2616 28.9386 15.3595 27.7653C13.2085 26.4384 10.5648 25.8502 5.27742 24.674L0 23.5L5.27742 22.326C10.5648 21.1498 13.2085 20.5616 15.3595 19.2347C17.2616 18.0614 18.8775 16.4778 20.089 14.5998C21.4591 12.476 22.1004 9.84472 23.3831 4.58213L24.5 0Z" fill="#E84312"/>
</svg>
